# xmcd
#
# Track frame offsets: 
#        150
#        18158
#        36055
#        53968
#        71313
#        89408
#        108660
#        129907
#        149448
#        168822
#        186194
#        206318
#
# Disc length: 2993 seconds
#
# Revision: 2
# Processed by: cddbd v1.5.2PL0 Copyright (c) Steve Scherf et al.
# Submitted via: ExactAudioCopy v0.99pb4
#
DISCID=9c0baf0c
DTITLE=Sergio Mendes - Encanto
DYEAR=2008
DGENRE=Jazz
TTITLE0=The Look of Love
TTITLE1=Funky Bahia
TTITLE2=Waters of March
TTITLE3=Odo-Ya
TTITLE4=Somewhere in the Hills (O Morro Nao Tem Vez)
TTITLE5=Lugar Comum
TTITLE6=Dreamer
TTITLE7=Morning in Rio
TTITLE8=Y Vamos Ya (...Let's Go)
TTITLE9=Catavento (Catavento e Girassol)
TTITLE10=Acode
TTITLE11=Agua de Beber
EXTD=YEAR: 2008
EXTT0=
EXTT1=
EXTT2=
EXTT3=
EXTT4=
EXTT5=
EXTT6=
EXTT7=
EXTT8=
EXTT9=
EXTT10=
EXTT11=
PLAYORDER=
